<svg xmlns="http://www.w3.org/2000/svg" class="ionicon" viewBox="0 0 512 512">
  <defs>
    <linearGradient id="gradient" x1="0%" y1="0%" x2="100%" y2="100%">
      <stop offset="0%" style="stop-color:#FFDB6E;stop-opacity:1" />
      <stop offset="100%" style="stop-color:#FFBC5E;stop-opacity:1" />
    </linearGradient>
  </defs>
  <path d="M368 48h-11.41a8 8 0 01-7.44-5.08A42.18 42.18 0 00309.87 16H202.13a42.18 42.18 0 00-39.28 26.92 8 8 0 01-7.44 5.08H144a64 64 0 00-64 64v320a64 64 0 0064 64h224a64 64 0 0064-64V112a64 64 0 00-64-64zm-48.13 64H192.13a16 16 0 010-32h127.74a16 16 0 010 32z" fill="url(#gradient)"/>
</svg>
